<svg width="44" height="66" viewBox="0 0 44 66" fill="none" xmlns="http://www.w3.org/2000/svg">
<path d="M41.6238 20.0988H26.4035L31.5882 1.95386C31.7108 1.52323 31.6252 1.06123 31.3557 0.703322C31.0862 0.345414 30.6642 0.135803 30.2164 0.135803H10.2535C9.61037 0.135803 9.04713 0.566433 8.87745 1.18671L0.32189 32.5571C0.204964 32.9863 0.294798 33.4454 0.564298 33.7976C0.835224 34.1498 1.25302 34.358 1.69791 34.358H17.1008L11.7022 64.0472C11.581 64.7117 11.9432 65.3705 12.5706 65.6243C12.746 65.6956 12.9271 65.7284 13.1053 65.7284C13.5716 65.7284 14.0222 65.5003 14.2931 65.0939L42.8116 22.3161C43.1039 21.8783 43.131 21.3165 42.8829 20.8531C42.6334 20.3882 42.15 20.0988 41.6238 20.0988Z" fill="white"/>
</svg>
