<svg width="35" height="35" viewBox="0 0 35 35" fill="none" xmlns="http://www.w3.org/2000/svg">
<mask id="mask0_1_291" style="mask-type:alpha" maskUnits="userSpaceOnUse" x="2" y="2" width="31" height="31">
<path d="M18.9584 8.74972V4.37472C18.9584 3.56931 19.6113 2.91638 20.4167 2.91638H30.625C31.4305 2.91638 32.0834 3.56931 32.0834 4.37472V8.74972C32.0834 9.55512 31.4305 10.208 30.625 10.208H20.4167C19.6113 10.208 18.9584 9.55512 18.9584 8.74972ZM18.9584 30.6247V26.2497C18.9584 25.4443 19.6113 24.7914 20.4167 24.7914H30.625C31.4305 24.7914 32.0834 25.4443 32.0834 26.2497V30.6247C32.0834 31.4302 31.4305 32.0831 30.625 32.0831H20.4167C19.6113 32.0831 18.9584 31.4302 18.9584 30.6247ZM16.0417 30.6247V21.8747C16.0417 21.0693 15.3888 20.4164 14.5834 20.4164H4.37502C3.56961 20.4164 2.91669 21.0693 2.91669 21.8747V30.6247C2.91669 31.4302 3.56961 32.0831 4.37502 32.0831H14.5834C15.3888 32.0831 16.0417 31.4302 16.0417 30.6247Z" fill="white"/>
</mask>
<g mask="url(#mask0_1_291)">
<path d="M18.9584 8.74972V4.37472C18.9584 3.56931 19.6113 2.91638 20.4167 2.91638H30.625C31.4305 2.91638 32.0834 3.56931 32.0834 4.37472V8.74972C32.0834 9.55512 31.4305 10.208 30.625 10.208H20.4167C19.6113 10.208 18.9584 9.55512 18.9584 8.74972ZM18.9584 30.6247V26.2497C18.9584 25.4443 19.6113 24.7914 20.4167 24.7914H30.625C31.4305 24.7914 32.0834 25.4443 32.0834 26.2497V30.6247C32.0834 31.4302 31.4305 32.0831 30.625 32.0831H20.4167C19.6113 32.0831 18.9584 31.4302 18.9584 30.6247ZM16.0417 30.6247V21.8747C16.0417 21.0693 15.3888 20.4164 14.5834 20.4164H4.37502C3.56961 20.4164 2.91669 21.0693 2.91669 21.8747V30.6247C2.91669 31.4302 3.56961 32.0831 4.37502 32.0831H14.5834C15.3888 32.0831 16.0417 31.4302 16.0417 30.6247Z" stroke="white" stroke-width="4"/>
</g>
<mask id="mask1_1_291" style="mask-type:alpha" maskUnits="userSpaceOnUse" x="2" y="2" width="31" height="20">
<path d="M2.91669 16.0414V4.37472C2.91669 3.56931 3.56961 2.91638 4.37502 2.91638H14.5834C15.3888 2.91638 16.0417 3.56931 16.0417 4.37472V16.0414C16.0417 16.8468 15.3888 17.4997 14.5834 17.4997H4.37502C3.56961 17.4997 2.91669 16.8468 2.91669 16.0414ZM18.9584 20.4164V14.583C18.9584 13.7776 19.6113 13.1247 20.4167 13.1247H30.625C31.4305 13.1247 32.0834 13.7776 32.0834 14.583V20.4164C32.0834 21.2218 31.4305 21.8747 30.625 21.8747H20.4167C19.6113 21.8747 18.9584 21.2218 18.9584 20.4164Z" fill="white"/>
</mask>
<g mask="url(#mask1_1_291)">
<path d="M2.91669 16.0414V4.37472C2.91669 3.56931 3.56961 2.91638 4.37502 2.91638H14.5834C15.3888 2.91638 16.0417 3.56931 16.0417 4.37472V16.0414C16.0417 16.8468 15.3888 17.4997 14.5834 17.4997H4.37502C3.56961 17.4997 2.91669 16.8468 2.91669 16.0414ZM18.9584 20.4164V14.583C18.9584 13.7776 19.6113 13.1247 20.4167 13.1247H30.625C31.4305 13.1247 32.0834 13.7776 32.0834 14.583V20.4164C32.0834 21.2218 31.4305 21.8747 30.625 21.8747H20.4167C19.6113 21.8747 18.9584 21.2218 18.9584 20.4164Z" stroke="white" stroke-width="4"/>
</g>
</svg>
